#!OML:ASF X:\für Bonn\!DataBase\2005_08_12_Daniel\c3d\Daniel.ASF
:FULLY-SPECIFIED
:DEGREES
140
root 0.753515 14.3645 1.38022 -563.615 -101.013 548.554
lowerback 18.4845 0.818141 2.03743
upperback -3.60756 0.898919 -4.5041
thorax -14.4666 -0.060272 -6.57902
lowerneck -0.266426 -6.44929 -1.28473
upperneck 4.9581 -8.50413 -2.8347
head 1.50563 -4.33414 -0.779801
rclavicle 3.97569e-015 -1.59028e-015
rhumerus 64.8009 -7.42325 -70.2676
rradius 98.1701
rwrist 35.3188
rhand -64.9375 619.416
rfingers 7.12502
rthumb -36.8385 74.4781
lclavicle 3.97569e-015 -1.59028e-015
lhumerus -113.148 213.317 -113.745
lradius 90.9946
lwrist 46.8757
lhand -24.5114 -14.8508
lfingers 7.12502
lthumb 1.98343 15.1197
rfemur -14.4727 -19.1319 -0.0957867
rtibia 82.8885
rfoot -24.8293 10.1264
rtoes -9.51901
lfemur -201.408 188.626 -201.358
ltibia 80.2809
lfoot 323.586 -14.807
ltoes 3.51991
141
root 0.718802 14.3913 1.35741 -562.956 -101.518 548.137
lowerback 18.1181 0.804214 1.90691
upperback -3.79859 0.831004 -4.58959
thorax -14.4822 -0.0900879 -6.57388
lowerneck -0.54936 -6.5651 -1.44993
upperneck 5.31507 -8.64971 -2.68305
head 1.68227 -4.41341 -0.731577
rclavicle 1.19271e-015 3.33958e-014
rhumerus 65.317 -7.88129 -70.0429
rradius 98.0393
rwrist 35.5339
rhand -65.2573 618.768
rfingers 7.12502
rthumb -37.1411 75.2037
lclavicle 1.19271e-015 3.33958e-014
lhumerus -112.509 213.398 -114.244
lradius 90.8338
lwrist 46.8907
lhand -24.442 -14.6407
lfingers 7.12502
lthumb 2.05047 15.3292
rfemur -14.1806 -19.467 -0.0314115
rtibia 82.5081
rfoot -24.8431 9.96255
rtoes -9.26823
lfemur -201.507 189 -201.309
ltibia 80.0306
lfoot 323.528 -14.8921
ltoes 3.60121
142
root 0.684806 14.4307 1.33235 -562.202 -101.99 547.628
lowerback 17.7689 0.790461 1.76342
upperback -3.98635 0.766849 -4.63713
thorax -14.5034 -0.114486 -6.5194
lowerneck -0.77103 -6.66632 -1.65328
upperneck 5.59876 -8.77797 -2.52256
head 1.82876 -4.48296 -0.670181
rclavicle -4.77083e-015 1.27222e-014
rhumerus 65.8827 -8.32161 -69.7816
rradius 97.7827
rwrist 35.6114
rhand -65.649 619.114
rfingers 7.12502
rthumb -37.5114 74.9558
lclavicle -4.77083e-015 1.27222e-014
lhumerus -111.897 213.399 -114.723
lradius 90.6347
lwrist 46.9014
lhand -24.3563 -14.5643
lfingers 7.12502
lthumb 2.1332 15.4048
rfemur -13.852 -19.7448 0.153383
rtibia 81.9733
rfoot -24.8748 9.69212
rtoes -9.14054
lfemur -201.506 189.345 -201.207
ltibia 79.5948
lfoot 323.515 -14.9794
ltoes 3.6977
143
root 0.652312 14.4838 1.30654 -561.474 -102.453 547.162
lowerback 17.4215 0.778222 1.62852
upperback -4.17357 0.70541 -4.69507
thorax -14.5238 -0.139209 -6.48327
lowerneck -0.986018 -6.76406 -1.82368
upperneck 5.89773 -8.90161 -2.38273
head 1.97822 -4.55006 -0.620762
rclavicle -1.66979e-014 2.22639e-014
rhumerus 66.4545 -8.75291 -69.58
rradius 97.375
rwrist 35.647
rhand -66.1157 620.342
rfingers 7.12502
rthumb -37.9522 73.8455
lclavicle -1.66979e-014 2.22639e-014
lhumerus -111.302 213.387 -115.166
lradius 90.3795
lwrist 46.9365
lhand -24.1033 -14.5192
lfingers 7.12502
lthumb 2.37762 15.4473
rfemur -13.4908 -19.9612 0.408838
rtibia 81.2799
rfoot -24.8199 9.36583
rtoes -8.8407
lfemur -201.436 189.717 -201.107
ltibia 78.9799
lfoot 323.597 -15.0312
ltoes 3.73108
144
root 0.62225 14.5496 1.28157 -560.673 -102.926 546.629
lowerback 17.0794 0.749283 1.52188
upperback -4.34426 0.629829 -4.74807
thorax -14.5287 -0.171719 -6.45342
lowerneck -1.21244 -6.85398 -1.99961
upperneck 6.20119 -9.0156 -2.2197
head 2.13424 -4.61174 -0.564083
rclavicle -5.1684e-015 -9.54166e-015
rhumerus 67.0593 -9.16423 -69.4092
rradius 96.8143
rwrist 35.6042
rhand -66.5371 622.239
rfingers 7.12502
rthumb -38.3501 72.0578
lclavicle -5.1684e-015 -9.54166e-015
lhumerus -110.692 213.336 -115.584
lradius 90.0544
lwrist 47.0448
lhand -23.8106 -14.5886
lfingers 7.12502
lthumb 2.66032 15.3745
rfemur -13.0883 -20.1806 0.719646
rtibia 80.4441
rfoot -24.8012 8.9617
rtoes -8.63736
lfemur -201.295 190.117 -200.993
ltibia 78.2015
lfoot 323.74 -15.0478
ltoes 3.75082
145
root 0.592886 14.6262 1.25986 -559.966 -103.36 546.198
lowerback 16.7339 0.727708 1.45195
upperback -4.52048 0.571832 -4.80652
thorax -14.5351 -0.200126 -6.45689
lowerneck -1.4632 -6.93141 -2.23697
upperneck 6.57285 -9.11255 -2.01289
head 2.32433 -4.66601 -0.487037
rclavicle 1.43125e-014 -3.02153e-014
rhumerus 67.6172 -9.55131 -69.3012
rradius 96.0986
rwrist 35.4999
rhand -66.8454 624.002
rfingers 7.12502
rthumb -38.641 70.3764
lclavicle 1.43125e-014 -3.02153e-014
lhumerus -110.097 213.28 -115.942
lradius 89.64
lwrist 47.1677
lhand -23.5341 -14.6324
lfingers 7.12502
lthumb 2.92729 15.3272
rfemur -12.6622 -20.3295 1.06004
rtibia 79.4659
rfoot -24.7893 8.47745
rtoes -8.61626
lfemur -201.075 190.517 -200.912
ltibia 77.2768
lfoot 324.176 -15.0488
ltoes 3.94466
146
root 0.565663 14.7144 1.23972 -559.245 -103.791 545.776
lowerback 16.3547 0.702597 1.4045
upperback -4.67992 0.514127 -4.87219
thorax -14.5003 -0.229258 -6.47944
lowerneck -1.46506 -7.00734 -2.40914
upperneck 6.75727 -9.21989 -1.81105
head 2.40548 -4.72102 -0.405859
rclavicle -8.5875e-014 6.36111e-015
rhumerus 68.1081 -9.90836 -69.2459
rradius 95.2712
rwrist 35.3583
rhand -67.0484 625.394
rfingers 7.12502
rthumb -38.8325 69.0378
lclavicle -8.5875e-014 6.36111e-015
lhumerus -109.469 213.199 -116.264
lradius 89.1764
lwrist 47.3546
lhand -23.282 -14.6623
lfingers 7.12502
lthumb 3.17073 15.2939
rfemur -12.2243 -20.451 1.44667
rtibia 78.3536
rfoot -24.7701 7.95572
rtoes -8.62317
lfemur -200.816 190.951 -200.845
ltibia 76.2243
lfoot 324.651 -14.9351
ltoes 3.98811
147
root 0.540305 14.814 1.22054 -558.528 -104.186 545.351
lowerback 15.9935 0.681923 1.38658
upperback -4.83972 0.469907 -4.93154
thorax -14.4746 -0.254891 -6.51692
lowerneck -1.18439 -7.05862 -2.48515
upperneck 6.72174 -9.30604 -1.66465
head 2.35493 -4.7617 -0.337857
rclavicle 2.90226e-014 9.54166e-015
rhumerus 68.5075 -10.2151 -69.2329
rradius 94.3477
rwrist 35.1428
rhand -67.0261 625.558
rfingers 7.12502
rthumb -38.8115 68.8679
lclavicle 2.90226e-014 9.54166e-015
lhumerus -108.879 213.112 -116.529
lradius 88.6555
lwrist 47.6116
lhand -23.0452 -14.7318
lfingers 7.12502
lthumb 3.39947 15.2209
rfemur -11.7528 -20.4937 1.89646
rtibia 77.104
rfoot -24.735 7.31952
rtoes -8.65157
lfemur -200.484 191.374 -200.776
ltibia 75.0528
lfoot 325.153 -14.7271
ltoes 3.94852
148
root 0.515548 14.9219 1.20074 -557.854 -104.615 544.987
lowerback 15.5893 0.651793 1.3568
upperback -4.98896 0.407008 -5.01563
thorax -14.4122 -0.288663 -6.56844
lowerneck -0.940941 -7.09259 -2.44684
upperneck 6.66333 -9.36812 -1.56969
head 2.29504 -4.7888 -0.30417
rclavicle 1.59028e-014 2.70347e-014
rhumerus 68.7665 -10.4632 -69.2963
rradius 93.4181
rwrist 34.9318
rhand -66.8297 624.666
rfingers 7.12502
rthumb -38.6262 69.7081
lclavicle 1.59028e-014 2.70347e-014
lhumerus -108.364 213.07 -116.772
lradius 88.1569
lwrist 47.8003
lhand -22.9297 -14.7115
lfingers 7.12502
lthumb 3.51101 15.2394
rfemur -11.2227 -20.5206 2.36162
rtibia 75.7266
rfoot -24.6588 6.69989
rtoes -8.57049
lfemur -200.126 191.874 -200.737
ltibia 73.7936
lfoot 325.718 -14.4192
ltoes 3.8199
149
root 0.490598 15.0398 1.18145 -557.199 -105.034 544.64
lowerback 15.1764 0.616222 1.32258
upperback -5.13288 0.338291 -5.08686
thorax -14.3383 -0.323412 -6.60065
lowerneck -0.64257 -7.10954 -2.40284
upperneck 6.55465 -9.40869 -1.48212
head 2.20821 -4.80477 -0.26933
rclavicle 8.74653e-015 4.13472e-014
rhumerus 68.945 -10.6328 -69.3753
rradius 92.4424
rwrist 34.6542
rhand -66.4319 622.781
rfingers 7.12502
rthumb -38.2508 71.4883
lclavicle 8.74653e-015 4.13472e-014
lhumerus -107.95 213.024 -116.924
lradius 87.6287
lwrist 47.9592
lhand -22.812 -14.6328
lfingers 7.12502
lthumb 3.62468 15.3161
rfemur -10.6125 -20.4749 2.87442
rtibia 74.2062
rfoot -24.5911 6.02194
rtoes -8.60348
lfemur -199.703 192.395 -200.711
ltibia 72.4244
lfoot 326.347 -14.0211
ltoes 3.65789
150
root 0.468381 15.1636 1.16314 -556.635 -105.424 544.398
lowerback 14.7661 0.588839 1.27518
upperback -5.29118 0.278023 -5.15252
thorax -14.2814 -0.353812 -6.62256
lowerneck -0.140871 -7.12495 -2.39408
upperneck 6.32703 -9.45519 -1.35705
head 2.05068 -4.82251 -0.205698
rclavicle -2.54444e-014 0
rhumerus 69.0498 -10.7413 -69.4662
rradius 91.4059
rwrist 34.4142
rhand -65.9872 620.339
rfingers 7.12502
rthumb -37.8309 73.8155
lclavicle -2.54444e-014 0
lhumerus -107.673 213.006 -117.025
lradius 87.1135
lwrist 48.0062
lhand -22.7584 -14.5031
lfingers 7.12502
lthumb 3.67645 15.4449
rfemur -9.97519 -20.3718 3.39318
rtibia 72.5405
rfoot -24.3777 5.35523
rtoes -8.32833
lfemur -199.238 192.942 -200.715
ltibia 70.9737
lfoot 327.036 -13.5103
ltoes 3.4851
151
root 0.446885 15.3065 1.14776 -556.161 -105.729 544.236
lowerback 14.3841 0.583998 1.25218
upperback -5.4259 0.253409 -5.22393
thorax -14.2092 -0.369427 -6.67491
lowerneck 0.41844 -7.15265 -2.35977
upperneck 6.01812 -9.52031 -1.21125
head 1.8581 -4.84782 -0.135843
rclavicle -5.92378e-014 6.04305e-014
rhumerus 69.1996 -10.8398 -69.5561
rradius 90.2324
rwrist 34.212
rhand -65.4924 617.909
rfingers 7.12502
rthumb -37.3633 76.1216
lclavicle -5.92378e-014 6.04305e-014
lhumerus -107.433 212.995 -117.139
lradius 86.5988
lwrist 48.0262
lhand -22.6929 -14.3897
lfingers 7.12502
lthumb 3.7397 15.5573
rfemur -9.24947 -20.1671 3.94774
rtibia 70.6702
rfoot -24.0413 4.64071
rtoes -8.06116
lfemur -198.732 193.5 -200.768
ltibia 69.3857
lfoot 327.863 -12.8165
ltoes 3.09263
152
root 0.427944 15.4662 1.13449 -555.826 -105.912 544.225
lowerback 14.0586 0.616031 1.25219
upperback -5.59602 0.27677 -5.31915
thorax -14.2077 -0.370375 -6.7855
lowerneck 1.11587 -7.17471 -2.28146
upperneck 5.64798 -9.58261 -1.03868
head 1.62337 -4.87054 -0.0577786
rclavicle -1.55052e-014 1.43125e-014
rhumerus 69.411 -10.9458 -69.6699
rradius 88.7996
rwrist 34.0993
rhand -65.13 615.916
rfingers 7.12502
rthumb -37.0206 78.0247
lclavicle -1.55052e-014 1.43125e-014
lhumerus -107.346 213.052 -117.219
lradius 86.0895
lwrist 47.9061
lhand -22.562 -14.1864
lfingers 7.12502
lthumb 3.86603 15.7583
rfemur -8.5327 -19.7995 4.54675
rtibia 68.6453
rfoot -23.5807 3.78749
rtoes -7.7704
lfemur -198.14 194.06 -200.866
ltibia 67.6855
lfoot 328.808 -12.0064
ltoes 2.73126
